<svg xmlns="http://www.w3.org/2000/svg" viewBox="0 0 13.8 13.8"><defs><style>.cls-1{fill:#666;}</style></defs><g id="Layer_2" data-name="Layer 2"><g id="Layer_1-2" data-name="Layer 1"><path class="cls-1" d="M13.39,5.77l-2-.25a5.14,5.14,0,0,0-.35-.84L12.29,3.1a.47.47,0,0,0,0-.61l-.94-.94a.47.47,0,0,0-.62,0L9.12,2.73a4.9,4.9,0,0,0-.85-.35L8,.41A.47.47,0,0,0,7.56,0H6.23a.46.46,0,0,0-.46.41l-.24,2a4.9,4.9,0,0,0-.85.35L3.1,1.51a.46.46,0,0,0-.61,0l-.94.94a.46.46,0,0,0,0,.61L2.73,4.68a5.14,5.14,0,0,0-.35.84l-2,.25A.46.46,0,0,0,0,6.23V7.56A.47.47,0,0,0,.41,8l2,.24a4.9,4.9,0,0,0,.35.85L1.51,10.69a.47.47,0,0,0,0,.62l.94.94a.47.47,0,0,0,.61,0l1.58-1.22a5.4,5.4,0,0,0,.85.35l.24,2a.47.47,0,0,0,.46.41H7.56A.47.47,0,0,0,8,13.39l.24-2a5.83,5.83,0,0,0,.85-.35l1.57,1.22a.48.48,0,0,0,.62,0l.94-.94a.48.48,0,0,0,0-.62L11.07,9.12a4.9,4.9,0,0,0,.35-.85l2-.24a.47.47,0,0,0,.41-.47V6.23A.47.47,0,0,0,13.39,5.77ZM6.9,9.17A2.27,2.27,0,1,1,9.17,6.9,2.27,2.27,0,0,1,6.9,9.17Z"/></g></g></svg>