<svg xmlns="http://www.w3.org/2000/svg" viewBox="0 0 13.51 16.04"><defs><style>.cls-1{fill:#666;}</style></defs><g id="Layer_2" data-name="Layer 2"><g id="Layer_1-2" data-name="Layer 1"><path class="cls-1" d="M6.75,0,0,1.78V9c0,2.92,2.52,4.26,4.37,5.25a7.68,7.68,0,0,1,1.72,1.09l.66.68.66-.68a7.78,7.78,0,0,1,1.73-1.09c1.84-1,4.37-2.33,4.37-5.25V1.78Zm4.91,9c0,1.68-1.4,2.56-3.39,3.62a16.48,16.48,0,0,0-1.52.88,15.05,15.05,0,0,0-1.51-.88c-2-1.06-3.4-1.94-3.4-3.62v-6L6.75,2l4.91,1.09Z"/><polygon class="cls-1" points="4.26 6.86 2.99 8.2 5.66 10.73 10.96 4.99 9.61 3.73 5.58 8.1 4.26 6.86"/></g></g></svg>