<svg xmlns="http://www.w3.org/2000/svg" viewBox="0 0 189.83 32.81"><defs><style>.cls-1{fill:#8dc602;}.cls-2{fill:#999;}</style></defs><g id="Layer_2" data-name="Layer 2"><g id="Layer_1-2" data-name="Layer 1"><path class="cls-1" d="M0,17.59C0,7,3.13,2.33,12.65,2.33a16,16,0,0,1,8.63,2.29L18,9.84A10.86,10.86,0,0,0,12.37,8.4c-3.9,0-6.07,1.48-6.07,9.35,0,7.55,1.45,9.72,5.82,9.72,3.82,0,4.5-2,4.5-6.55V20.2H10.84V14.78H22.6v5c0,9.59-2.13,13-11,13C2.37,32.81,0,27,0,17.59Z"/><path class="cls-1" d="M23.48,21c0-7.1,2-11.72,10-11.72s10,4.7,10,11.72c0,7.31-1.88,11.81-10,11.81S23.48,28.19,23.48,21Zm13.93.2c0-4-.4-6.26-3.89-6.26s-3.9,2.29-3.9,6.26.41,6.31,3.9,6.31S37.41,25.14,37.41,21.2Z"/><path class="cls-1" d="M44.39,21c0-7.1,2-11.72,10-11.72s10,4.7,10,11.72c0,7.31-1.89,11.81-10,11.81S44.39,28.19,44.39,21Zm13.94.2c0-4-.41-6.26-3.9-6.26s-3.89,2.29-3.89,6.26.4,6.31,3.89,6.31S58.33,25.14,58.33,21.2Z"/><path class="cls-1" d="M65.35,21c0-6.34,1-11.68,7.87-11.68,3.21,0,4.77.52,5.86,1.73V1.57h6.1V32.24l-4.86.41-.48-2.09c-1.2,1.4-3.17,2.17-6.9,2.17C66.19,32.73,65.35,27.23,65.35,21Zm13.73.12c0-4-.44-6.18-4.06-6.18-3,0-3.57,2-3.57,6.18s.44,6.39,3.57,6.39C78.56,27.47,79.08,25.22,79.08,21.08Z"/><path class="cls-2" d="M86.86,14h2.93l.5-4.9,2.53-.57V14h4.33v2.73H92.82V27.21c0,1.64.23,2.5,2.27,2.5h2.06v2.73c-.46,0-2,.1-2.4.1-4.13,0-5.06-1.56-5.06-5V16.69H86.86Z"/><path class="cls-2" d="M97.92,23.15c0-5.46,1.13-9.53,7.39-9.53s7.4,4.13,7.4,9.53c0,5.56-1.1,9.56-7.4,9.56S97.92,28.68,97.92,23.15Zm11.65.1c0-3.83-.4-6.69-4.26-6.69s-4.26,2.86-4.26,6.69.43,6.73,4.26,6.73S109.57,27.08,109.57,23.25Z"/><path class="cls-1" d="M114.49,17.59c0-10.6,3.13-15.26,12.64-15.26a16,16,0,0,1,8.63,2.29l-3.33,5.22a10.8,10.8,0,0,0-5.58-1.44c-3.89,0-6.06,1.48-6.06,9.35,0,7.55,1.44,9.72,5.82,9.72,3.81,0,4.5-2,4.5-6.55V20.2h-5.78V14.78h11.76v5c0,9.59-2.13,13-11,13C116.85,32.81,114.49,27,114.49,17.59Z"/><path class="cls-1" d="M138,21c0-7.1,2-11.72,10-11.72S158,14,158,21c0,7.31-1.89,11.81-10,11.81S138,28.19,138,21Zm13.93.2c0-4-.4-6.26-3.9-6.26s-3.89,2.29-3.89,6.26.4,6.31,3.89,6.31S151.9,25.14,151.9,21.2Z"/><path class="cls-1" d="M167.57,16.19,161,0h7.61l7.15,16.19L168.6,32.44H161Zm14.08,0L175.13,0h7.61l7.09,16.19-7.09,16.25h-7.61Z"/></g></g></svg>